<svg xmlns="http://www.w3.org/2000/svg">
  <symbol id="logo" xmlns="http://www.w3.org/2000/svg" viewBox="0 0 78 48" fill="none">
    <path fill="currentColor" fill-rule="evenodd" d="M24 48A24 24 0 1 1 39.4 5.6L21 24l18.4 18.4A23.9 23.9 0 0 1 24 48Z" clip-rule="evenodd"/>
    <circle cx="4.5" cy="4.5" r="4.5" fill="currentColor" transform="matrix(-1 0 0 1 48 19)"/>
    <circle cx="4.5" cy="4.5" r="4.5" fill="currentColor" transform="matrix(-1 0 0 1 63 19)"/>
    <circle cx="4.5" cy="4.5" r="4.5" fill="currentColor" transform="matrix(-1 0 0 1 78 19)"/>
  </symbol>
  <symbol id="biohand" xmlns="http://www.w3.org/2000/svg" viewBox="0 0 101 67" fill="none">
    <path fill="currentColor" d="M34.5 26a1.7 1.7 0 0 1-2.4-.7c-.5-.8-.2-1.9.6-2.4l7-4.1c.9-.5 2-.3 2.4.6.5.8.2 1.9-.6 2.4l-7 4.2Z"/>
    <path fill="currentColor" fill-rule="evenodd" d="m101 40-1.4-8.2c-.2-.7-.8-1.3-1.5-1.4l-7.4-.9-2.6-4.8a6.7 6.7 0 0 0-2.5-9.2l-7.1-4c-.9-.5-2-.2-2.4.6-.4.9-.2 2 .7 2.4l7.1 4c1.7 1 2.1 3.2 1 4.7a3.1 3.1 0 0 1-3.6 1.1L61 17a9.1 9.1 0 0 0 4-9.1l5.7 3.2a1.7 1.7 0 0 0 2.3-.6c.5-.9.2-2-.6-2.4L61.2 1.6a9.1 9.1 0 0 0-8.6-1 9 9 0 0 0-5.5 6.6L14.6 21.7A15 15 0 0 0 2.7 28c-.5.8-.3 1.8.4 2.4.8.6 1.9.4 2.4-.4 2.2-3.1 5.7-5 9.4-5 6.4 0 11.6 5.3 11.6 11.7 0 6.4-5.2 11.6-11.5 11.6A11.6 11.6 0 0 1 3.5 35.8c0-1-.6-1.8-1.6-1.9-1 0-1.8.6-1.8 1.6L0 36.8c0 5.6 3 10.5 7.5 13L15.3 67h3.9L12 51.6a14.8 14.8 0 0 0 13.6-4.3l9 19.7h3.8L28.2 44.4l27.3-25.8 24.6 9a6.5 6.5 0 0 0 5.4-.4l2.1 4-3.3 6.7c-.3.7-.2 1.6.4 2l6 5.8a1.7 1.7 0 0 0 2.4-.1c.7-.7.6-1.8 0-2.5L88 38.3l2.6-5.3 5.8.7 1.2 7c.1.9 1 1.5 2 1.4 1-.2 1.5-1.1 1.4-2ZM56 3.5a5.7 5.7 0 1 1-.6 11.4 5.7 5.7 0 0 1-5-6.4c.3-2.8 2.7-5 5.6-5ZM20.6 22.8 47.1 11c.5 2.7 2.2 5 4.7 6.4L29.8 38l.1-1.3c0-6.3-3.8-11.8-9.3-14Z" clip-rule="evenodd"/>
    <path fill="currentColor" d="M29.1 67 24 55.6a1.7 1.7 0 0 0-2.3-.9c-.9.4-1.3 1.5-.9 2.3l4.5 10h3.8Z"/>
    <path fill="currentColor" fill-rule="evenodd" d="M22.6 36.8c0-4.3-3.4-7.7-7.6-7.7a7.7 7.7 0 0 0-7.7 7.7c0 4.2 3.5 7.7 7.7 7.7s7.6-3.5 7.6-7.7Zm-11.8 0c0-2.3 1.9-4.2 4.2-4.2 2.3 0 4.1 1.9 4.1 4.2 0 2.3-1.8 4.2-4.1 4.2a4.2 4.2 0 0 1-4.2-4.2Z" clip-rule="evenodd"/>
  </symbol>
  <symbol id="chip" xmlns="http://www.w3.org/2000/svg" viewBox="0 0 80 80" fill="none">
    <path fill="currentColor" d="M68 7.6V0h-2.7v6.8L64 6.7h-2.7V0h-2.6v6.7h-4V0H52v6.7h-4V0h-2.7v6.7h-4V0h-2.6v6.7h-4V0H32v6.7h-4V0h-2.7v6.7h-4V0h-2.6v6.7h-4V0H12v7.6C10 8.5 8.5 10 7.6 12H0v2.7h6.8L6.7 16v2.7H0v2.6h6.7v4H0V28h6.7v4H0v2.7h6.7v4H0v2.6h6.7v4H0V48h6.7v4H0v2.7h6.7v4H0v2.6h6.7v4H0V68h7.6c.9 2 2.5 3.5 4.4 4.4V80h2.7v-6.8l1.3.1h2.7V80h2.6v-6.7h4V80H28v-6.7h4V80h2.7v-6.7h4V80h2.6v-6.7h4V80H48v-6.7h4V80h2.7v-6.7h4V80h2.6v-6.7h4V80H68v-7.6c2-.9 3.5-2.5 4.4-4.4H80v-2.7h-6.8l.1-1.3v-2.7H80v-2.6h-6.7v-4H80V52h-6.7v-4H80v-2.7h-6.7v-4H80v-2.6h-6.7v-4H80V32h-6.7v-4H80v-2.7h-6.7v-4H80v-2.6h-6.7v-4H80V12h-7.6c-.9-2-2.5-3.5-4.4-4.4ZM70.7 64c0 3.7-3 6.7-6.7 6.7H16c-3.7 0-6.7-3-6.7-6.7V16c0-3.7 3-6.7 6.7-6.7h48c3.7 0 6.7 3 6.7 6.7v48Z"/>
    <path fill="currentColor" d="M62.7 13.3H17.3a4 4 0 0 0-4 4v45.4a4 4 0 0 0 4 4h45.4a4 4 0 0 0 4-4V17.3a4 4 0 0 0-4-4ZM64 62.7c0 .7-.6 1.3-1.3 1.3H17.3c-.7 0-1.3-.6-1.3-1.3V17.3c0-.7.6-1.3 1.3-1.3h45.4c.7 0 1.3.6 1.3 1.3v45.4Z"/>
    <path fill="currentColor" d="M58.7 18.7h2.6v2.6h-2.6v-2.6ZM18.7 58.7h2.6v2.6h-2.6v-2.6ZM18.7 21.3v4h2.6v-4h4v-2.6h-4a2.7 2.7 0 0 0-2.6 2.6ZM58.7 58.7h-4v2.6h6.6v-6.6h-2.6v4Z"/>
  </symbol>
  <svg id="soul" xmlns="http://www.w3.org/2000/svg" viewBox="0 0 88 88" fill="none">
    <path fill="currentColor" fill-rule="evenodd" d="M85 44a41 41 0 1 1-82 0 41 41 0 0 1 82 0Zm3 0a44 44 0 1 1-88 0 44 44 0 0 1 88 0Zm-21.94-8.56c-.08.34-.17.66-.29.99l-.18-.02-.13-.2c-.19-.48-.7-.84-1.17-.77-.14.02-.36.16-.37.26l-.02.2c-.05.37-.1.77-.01 1.12.18.7.5 1.37.8 2.04.07.15.2.29.34.45l.24.27.7-1.49.18.62.34 1.22c.17.76 0 .97-.72 1.03v3.2c.02.51.09 1.02.2 1.52.02.12.27.29.41.28a8.4 8.4 0 0 0 1.62-.21l.03-.01c.83-.22 1.68-.44 1.9-1.47a.55.55 0 0 1 .32-.33c.63-.2.83-.74.34-1.16-.5-.43-.67-1-.84-1.56a8.3 8.3 0 0 0-.2-.6.46.46 0 0 1 .03-.35c.11-.2.25-.39.38-.58l.1-.13.06-.1c.06.09.13.16.2.24.17.17.33.34.36.53.07.46.36.72.65.97l.17.16c.34.32.6.23.75-.24.14-.48.27-.95.38-1.44.05-.26.08-.53.1-.8l.04-.35-.18-.05c-.11.14-.2.28-.3.44l-.11.3c-.06.17-.12.35-.24.48-.19.22-.53.5-.74.46-.33-.07-.34-.45-.2-.77l.07-.23c.03-.08.05-.17.1-.25.72-1.47.8-2.97.17-4.5l-.29-.72-.14-.38.12-.05c.79 1.5 1.37 3.1 1.74 4.76.07-1.18.08-2.3-.21-3.42-.2-.7-.34-1.4-.44-2.1a9.69 9.69 0 0 0-1.85-4.56c-.26-.35-.42-.21-.59 0-.23.31-.5.45-.88.31-.05-.01-.12 0-.2.01l-.19.03.42 1.7v.06l-.13.03-.03-.09-.04-.1v-.02l-.17-.5c-.18-.55-.8-.8-1.12-.4a4 4 0 0 0-1 2.39c0 .28 0 .56-.1.8-.32.76-.27.86.58 1 .29.05.56.24.81.41l.04.03c.1.07.17.33.12.4a.6.6 0 0 1-.43.16c-.96-.02-1.12.11-1.3 1.08Zm4.33-2.95-.16.11-.86-1.18.16-.12.86 1.19Zm-7.72-.3.07-.64c.04-.43.07-.8.15-1.16.07-.3.22-.57.43-.8a6.16 6.16 0 0 0 1.44-2.2c.29-.82.93-1.4 1.89-1.37.26 0 .61.15.76.36.1.12-.04.52-.18.71-.37.5-.57 1.05-.78 1.6l-.18.47c-.33.82-.44 1.68-.55 2.54-.08.64-.16 1.27-.33 1.89-.09.32-.35.82-.56.84h-.04c-.62.05-1.37.11-1.68-.63-.17-.4-.26-.83-.34-1.2l-.1-.41Zm-.62 29.03.05-.33-.1.04-.03.02-.03.01-.04.02-.14.08-1.85 1.9-.87.94a41.26 41.26 0 0 1-3.08 3.03 21.3 21.3 0 0 0-3.19 3.29c-.32.47-.61.96-.86 1.47-.04.06.2.33.21.33.16-.1.34-.15.52-.2.4-.12.79-.24.97-.74.09-.25.42-.44.69-.58.14-.08.3-.14.45-.19.2-.06.39-.13.55-.24.6-.42 1.17-.88 1.72-1.36h.01c.37-.32.75-.65 1.02-1.04.22-.31.4-.65.58-.98a12.36 12.36 0 0 1 1.56-2.28c.1-.14.24-.26.37-.39.18-.17.36-.33.48-.54a15 15 0 0 0 .91-1.76c.07-.14.08-.3.1-.5ZM20.44 31.74h.18c.08 0 .14 0 .18.04l.12.09.13.1c.42.3.85.63 1.24.97.19.17.1.36-.16.47l-1.2.51c-.39.17-.79.35-1.19.51-.5.22-1.23-.23-1.44-.88-.19-.58.1-1.03.73-1.22.21-.06.42-.16.62-.26l.32-.14.37-.15.1-.04Zm37.15 41.2.66-.92 1-1.38-.1-.11c-.1.02-.21.07-.3.12-.69.54-1.36 1.07-2.02 1.62-.19.16-.37.34-.55.52-.32.33-.65.66-1.04.85-.59.3-.63.71-.67 1.19l-.01.1-.03.42v.1l-.01.19c-.03.37.22.44.45.27.48-.37.93-.78 1.34-1.24.33-.38.63-.8.92-1.22l.36-.51Zm1.86-4.87-.33.47c-.16.24-.3.46-.47.67-.35.45-.71.9-1.1 1.33-.05.06-.15.07-.25.09h-.05a.83.83 0 0 0-.08.02c-.01-.06-.04-.13-.07-.2-.06-.14-.12-.3-.07-.38.21-.4.46-.81.8-1.11.27-.25.6-.44.93-.63l.37-.22.13-.02.19-.02Zm-38.61-31.2-.2.6c.04.73.17.85.9.77.16-.01.32-.05.48-.11.11-.05.27-.14.29-.23.01-.1-.1-.24-.2-.32-.2-.18-.42-.33-.65-.47-.2-.1-.41-.17-.62-.24Zm4.16-.01.21-.73.25-.84c.56.08 1.05.5 1.02.86-.04.53-.47.75-1.48.7Zm-.62.38c-.09 0-.19-.02-.3-.04l.02.26c0 .18.01.36.1.44.15.14.47.12.7.1.1 0 .27-.21.26-.3a.53.53 0 0 0-.29-.36c-.14-.05-.3-.07-.49-.1Zm-1.3-1.44c.07-.31.13-.6.53-.63.03 0 .14.22.1.3l-.05.15c-.07.25-.14.53-.61.3l.02-.12Zm4.3 15.06-.67-.35c-.04.5.16.65.5.59.05 0 .09-.08.13-.15a.87.87 0 0 1 .05-.1ZM41.42 29.7c-.08-.1-.13-.17-.12-.19.18-.24.37-.47.58-.68.1.05.19.12.26.2-.14.26-.3.5-.53.86l-.01.02-.18-.21Zm-24.28-3c.06-.16.12-.31.2-.46 2.29-1.64 7.35-3.9 18.06-4.25l-.87.6c-1.37.96-2.75 1.92-2.79 2.22-.02.13.18.34.33.4.1.05.3-.05.44-.13.06-.03.11-.08.16-.13.07-.07.14-.14.22-.15h.78c.37 0 .74 0 1.1-.05.57-.07 1.12-.24 1.67-.41l.04-.02c.14-.04.27-.12.4-.2.11-.08.23-.15.35-.2l1.8-.65.65-.24h8.4l.42.48c.34.4.69.8 1.06 1.16.27.27.63.46.96.63.06.03.16-.03.27-.1l.14-.07-.3-.24c-.22-.15-.41-.29-.46-.46-.13-.52-.39-1-.75-1.4h1.45c4.24.88 6.76 2.12 8.22 3.13.05.35.06.7.08 1.05l.01.26c.01.19.07.37.13.55l.07.22.06.17c.05.1.09.2.08.3-.01.34-.04.67-.07 1l-.07.99c-.02.3-.1.47-.42.58-.64.22-.9 1.14-.63 2l.14.46.17.55a.4.4 0 0 1-.01.2l-.13.48c-.1.36-.19.72-.23 1.08-.05.41-.19.71-.5.96-.32.24-.38.47-.2.88.14.28.14.64.13.98v.2c0 .28-.02.55-.03.82-.02.3-.03.6-.03.91.01.99.04 1.97.1 2.95.02.18.1.35.19.53l.1.19c.08.2.17.38.27.57.22.43.44.85.5 1.3.05.32-.1.67-.24 1.02-.07.16-.13.33-.18.5l-.14.5-.03.13-.03.1H59l.04.17c.04.15.08.32.06.48-.07.45.17.66.5.86.14.09.34.24.34.37.05.98.07 1.97.08 2.95 0 .92-.22 1.79-.45 2.66l-.18.73a.98.98 0 0 0-.02.23l-.01.23-.13.6c-.13.62-.25 1.24-.45 1.84-.08.24-.34.43-.58.62l-.2.15-.06.05c-.27.22-.54.44-.55.85a.35.35 0 0 1-.13.26 3.3 3.3 0 0 0-1.38 1.96c-.04-.12-.08-.22-.1-.32l-.21-.57c-.13-.3-.3-.31-.53-.06a11.5 11.5 0 0 1-1.06.98l-.09.07c-.05.04-.11.08-.14.14-.26.6-.78.8-1.32 1l-.21.07c-.22.09-.42.21-.62.34-.11.07-.23.15-.35.21-.23.13-.47.25-.7.36l-.55.29-.17.08a1.6 1.6 0 0 0-.46.3c-.47.48-.44.6.18.86.3.13.3.37.18.59-.12.2-.28.38-.48.51-.39.2-.68.43-.9.85-.08.15-.32.22-.57.29a2.98 2.98 0 0 0-.6.22 2.9 2.9 0 0 1-.57.22c-.43.1-.87.18-1.3.16-.36-.02-.55 0-.78.35-.24.36-.66.63-1.05.84-.11.06-.3-.02-.49-.1a2.72 2.72 0 0 0-.2-.1 1.68 1.68 0 0 1-.22-.1c-.13-.06-.26-.12-.38-.11-.39.02-.78.07-1.17.11l-.79.1c-.27.03-.54.04-.81 0-.74-.1-.8-.22-.56-.9.1-.29 0-.42-.22-.6a6.79 6.79 0 0 1-.63-.56l-.34-.33c-.12-.1-.25-.19-.38-.27l-.07.13c-.05.1-.1.2-.11.3l-.01 1v.01c0 .36 0 .73-.02 1.09 0 .08-.07.16-.14.24l-.09.1-.08-.06c-.07-.04-.14-.09-.15-.15-.13-.4-.24-.8-.36-1.21l-.4-1.36c-.13-.44-.1-.72.44-.8.37-.07.66-.23.57-.73-.06-.41.21-.49.5-.56.1-.03.2-.06.28-.1-.31-.55.01-.68.33-.8.13-.06.26-.1.35-.19a3.83 3.83 0 0 1 1.8-.84c.4-.05.59-.25.56-.64a11.9 11.9 0 0 0-.1-1.27c-.06-.3-.21-.42-.6-.33-.51.12-1.05.05-1.43-.42-.1-.11-.22-.28-.2-.4.11-.45.25-.9.43-1.33.2-.5.62-.61 1.12-.6.2 0 .42-.14.6-.26a8.2 8.2 0 0 1 2.44-1.1c.35-.13.68-.29 1-.49.8-.46 1.72-.65 2.64-.55a23.98 23.98 0 0 1 .6.19l.16.05c.35.1.7.22 1.07.3.1.02.3-.1.35-.2a.47.47 0 0 0-.03-.43 28.6 28.6 0 0 0-1.59-1.7c-.11-.11-.3-.16-.48-.2l-.04-.01-.14-.04a40.67 40.67 0 0 0-1.27-.36c-.13-.04-.25-.09-.36-.06a20.67 20.67 0 0 0-2.05.54c-.18.06-.37.13-.56.18-.65.17-1.32.31-1.99.42-.26.03-.53.02-.8 0l-.52-.02h-.14c-1.4.04-2.8.07-4.2.13-.48.03-.76-.04-.83-.61a2.05 2.05 0 0 0-.33-.76l-.16-.27c-.1-.2-.22-.4-.34-.6v-.01l-.08-.14c-.16-.28-.35-.6-.7-.4-.3.17-.6.39-.43.86.19.54.34 1.08.45 1.64.13.56-.29.72-.7.79-.45.07-.69-.24-.78-.6-.12-.45-.21-.92-.3-1.38a48.67 48.67 0 0 0-.2-.88c-.23-.3-.19-.63.07-.82.23-.15.5-.2.78-.17.5.08.76-.13.67-.66a7.89 7.89 0 0 0-.1-.49 4.55 4.55 0 0 1-.14-.8.9.9 0 0 1 .32-.64c.59-.47.62-.5.21-1.14l-.1-.29c.31-.08.63-.14.95-.18.6-.05 1.21-.08 1.82-.11l.52-.03.13-.01c.23-.03.46-.05.55.27.1.4-.16.47-.45.57h-.02a2.5 2.5 0 0 0-.67.37c-.1.07-.2.23-.18.32a.4.4 0 0 0 .3.23h.34c.47-.02.93-.02 1.37-.14.51-.14 1-.43 1.47-.71a1.79 1.79 0 0 0 .82-1.16c.32-1.28-.2-2.3-.9-3.28l-.07-.02h-.07l-.07.19c-.14.35-.28.7-.15 1.15.09.28-.1.78-.34.98-.24.2-.75.3-1.02.2a9.54 9.54 0 0 0-3.58-.77 1.2 1.2 0 0 1-.38-.08c-.1-.04-.2-.07-.32-.08a3.28 3.28 0 0 0-1.7.3 5.13 5.13 0 0 1-3.93.13c-.65-.25-.9-.99-.71-1.7.07-.26.13-.54.18-.82.06-.33.12-.65.22-.97.1-.3.21-.58.33-.86.15-.36.3-.71.4-1.08.13-.52.19-1.06.25-1.6a34.62 34.62 0 0 1 .17-1.43c.13-1.02.26-2.04.35-3.06.03-.47-.03-.94-.17-1.4-.4-1.35-.88-2.66-1.94-3.65-.12-.12-.3-.18-.48-.24a2.07 2.07 0 0 1-.35-.15c-.19-.1-.43-.26-.48-.44-.2-.69-.81-1.33-1.48-1.4l-.57-.07c-.68-.08-1.36-.16-2.02-.08a2.4 2.4 0 0 0-1.71.89c-.16.22-.48.5-.68.47-.46-.06-.76-.64-.7-1.06l.05-.5c.02-.3.05-.62.14-.92Zm27.63 1.42c-.19 0-.38 0-.56-.03a12.11 12.11 0 0 0-3.66-.02h-.04c-.3.03-.6 0-.9-.02l-.42-.02-.01-.09-.02-.08.58-.52c-.04 0-.08-.02-.11-.03-.06-.02-.1-.04-.13-.03a5.69 5.69 0 0 0-3.34 2.47l-.26.36c-.1.13-.2.26-.27.4-.1.16-.14.34-.14.52l.03.77.03.6c.02.74.5 1.13 1.13.73.46-.29.7-.12 1 .09l.1.07c.66.45 1.07.4 1.53-.18a.96.96 0 0 0-.22-.1 1.4 1.4 0 0 1-1.17-1.57c.07-.64.52-.98.98-1.3.34-.25.63-.19.94.12.4.4.84.74 1.32 1.03.27.14.59.17.88.08l.28-.08c.62-.19 1.26-.37 1.54-1.1 0-.04.04-.06.07-.09l.03-.02c.28-.24.54-.23.79.06.66.78 1.38.89 2.23.4l.05-.31c.04-.2.07-.39.03-.56-.08-.38-.21-.76-.34-1.13l-.15-.44c0-.02-.03-.03-.04-.03l-2.39-.82-.06.12.7.75Z" clip-rule="evenodd"/>
  </svg>
</svg>